<?xml version="1.0" encoding="UTF-8" standalone="no"?><!-- Generator: Gravit.io --><svg xmlns="http://www.w3.org/2000/svg" xmlns:xlink="http://www.w3.org/1999/xlink" style="isolation:isolate" viewBox="0 0 108 108" width="108pt" height="108pt"><defs><clipPath id="_clipPath_XLFkxsx0wu0vNb373VthGQk63nSCCPUQ"><rect width="108" height="108"/></clipPath></defs><g clip-path="url(#_clipPath_XLFkxsx0wu0vNb373VthGQk63nSCCPUQ)"><path d=" M 0 12 C 0 5.373 5.373 0 12 0 L 96 0 C 102.627 0 108 5.373 108 12 L 108 96 C 108 102.624 102.627 108 96 108 L 12 108 C 5.373 108 0 102.624 0 96 L 0 12 Z " fill="rgb(255,109,0)"/><path d=" M 0 12 L 0 47.901 L 12 59.901 C 12 59.901 45.459 98.544 72 72 C 98.541 45.456 60.057 15 60.057 15 L 45.042 0 L 12 0 C 5.373 0 0 5.37 0 12 Z " fill="rgb(230,74,25)"/><path d=" M 60.057 15 C 94.344 38.094 83.253 63.561 83.253 63.561 C 83.253 63.561 93.003 74.463 89.061 84 C 89.061 84 85.041 77.322 78.297 77.322 C 71.799 77.322 67.977 84 54.897 84 C 25.773 84 12 59.901 12 59.901 C 38.241 77.001 56.157 64.89 56.157 64.89 C 44.334 58.092 18 24 18 24 C 39.897 42.465 51 48 51 48 C 45.354 43.374 27 21 27 21 C 39.672 33.714 66.921 52.134 66.921 52.134 C 74.073 32.502 60.057 15 60.057 15 Z " fill="rgb(255,255,255)"/></g></svg>